<svg width="24" height="24" viewBox="0 0 24 24" fill="none" xmlns="http://www.w3.org/2000/svg">
<path d="M12 0C9.6359 0 7.32489 0.701038 5.3592 2.01446C3.39352 3.32789 1.86146 5.19471 0.956758 7.37886C0.0520539 9.56301 -0.184658 11.9664 0.276556 14.2851C0.73777 16.6037 1.87619 18.7336 3.54787 20.4053C5.21954 22.0769 7.34939 23.2154 9.66807 23.6766C11.9867 24.1378 14.3901 23.9011 16.5743 22.9964C18.7584 22.0917 20.6252 20.5596 21.9387 18.5939C23.2521 16.6282 23.9531 14.3172 23.9531 11.9531C23.9494 8.7841 22.6889 5.74594 20.448 3.5051C18.2072 1.26426 15.169 0.0037217 12 0ZM12 22.5C9.91403 22.5 7.8749 21.8814 6.14048 20.7225C4.40605 19.5636 3.05423 17.9164 2.25596 15.9892C1.4577 14.062 1.24883 11.9414 1.65579 9.89553C2.06274 7.84964 3.06723 5.97037 4.54224 4.49536C6.01725 3.02035 7.89652 2.01586 9.94241 1.60891C11.9883 1.20195 14.1089 1.41081 16.0361 2.20908C17.9633 3.00735 19.6105 4.35917 20.7694 6.0936C21.9283 7.82802 22.5469 9.86715 22.5469 11.9531C22.5438 14.7494 21.4316 17.4302 19.4543 19.4075C17.4771 21.3847 14.7963 22.4969 12 22.5ZM16.4531 10.0781V15.7031C16.4531 15.8896 16.379 16.0684 16.2472 16.2003C16.1153 16.3322 15.9365 16.4062 15.75 16.4062H10.125C9.93852 16.4062 9.75968 16.3322 9.62782 16.2003C9.49596 16.0684 9.42188 15.8896 9.42188 15.7031C9.42188 15.5166 9.49596 15.3378 9.62782 15.2059C9.75968 15.0741 9.93852 15 10.125 15H14.052L7.75313 8.7C7.62893 8.56671 7.56131 8.39042 7.56453 8.20826C7.56774 8.0261 7.64153 7.8523 7.77036 7.72348C7.89918 7.59465 8.07298 7.52086 8.25514 7.51765C8.4373 7.51443 8.61359 7.58205 8.74688 7.70625L15.0469 14.0051V10.0781C15.0469 9.89164 15.121 9.7128 15.2528 9.58094C15.3847 9.44908 15.5635 9.375 15.75 9.375C15.9365 9.375 16.1153 9.44908 16.2472 9.58094C16.379 9.7128 16.4531 9.89164 16.4531 10.0781Z" fill="#CECECE"/>
</svg>
