<svg width="10" height="18" viewBox="0 0 10 18" fill="none" xmlns="http://www.w3.org/2000/svg">
<path fill-rule="evenodd" clip-rule="evenodd" d="M7.71983 3.61084C8.25426 3.59896 8.78869 3.61084 9.32313 3.61084H9.54877V0.832814C9.26374 0.80907 8.96684 0.761583 8.66993 0.749711C8.12362 0.725967 7.57731 0.702223 7.031 0.714095C6.19967 0.725967 5.40396 0.939661 4.71513 1.42641C3.91942 1.99626 3.49188 2.80355 3.32561 3.74143C3.25435 4.1332 3.24247 4.53684 3.2306 4.92862C3.21872 5.54595 3.2306 6.17516 3.2306 6.7925V7.02994H0.570312V10.1285H3.20684V17.9283H6.43719V10.1404H9.07372C9.20436 9.10752 9.335 8.08654 9.47752 7.02994C9.26374 7.02994 9.07372 7.02994 8.8837 7.02994C8.1355 7.02994 6.41344 7.02994 6.41344 7.02994C6.41344 7.02994 6.41344 5.49847 6.43719 4.82177C6.46094 3.90763 7.00725 3.63458 7.7317 3.59896L7.71983 3.61084Z" fill="#8FDB00"/>
</svg>
