<svg width="16" height="16" viewBox="0 0 16 16" fill="none" xmlns="http://www.w3.org/2000/svg">
<path d="M8.01123 5.13281C6.42723 5.13281 5.14062 6.41942 5.14062 8.00342C5.14062 9.58742 6.42723 10.8772 8.01123 10.8772C9.59523 10.8772 10.885 9.58742 10.885 8.00342C10.885 6.41942 9.59523 5.13281 8.01123 5.13281Z" fill="#8FDB00"/>
<path d="M12.3461 0.175781H3.68107C1.75585 0.175781 0.1875 1.74413 0.1875 3.66935V12.3344C0.1875 14.2627 1.75585 15.828 3.68107 15.828H12.3461C14.2745 15.828 15.8397 14.2627 15.8397 12.3344V3.66935C15.8397 1.74413 14.2745 0.175781 12.3461 0.175781ZM8.01359 13.0732C5.21811 13.0732 2.94228 10.7973 2.94228 8.00187C2.94228 5.20639 5.21811 2.93369 8.01359 2.93369C10.8091 2.93369 13.0849 5.20639 13.0849 8.00187C13.0849 10.7973 10.8091 13.0732 8.01359 13.0732ZM13.1913 3.85404C12.5997 3.85404 12.1176 3.37509 12.1176 2.78343C12.1176 2.19178 12.5997 1.70969 13.1913 1.70969C13.783 1.70969 14.2651 2.19178 14.2651 2.78343C14.2651 3.37509 13.783 3.85404 13.1913 3.85404Z" fill="#8FDB00"/>
</svg>
