<svg width="26" height="26" viewBox="0 0 26 26" fill="none" xmlns="http://www.w3.org/2000/svg">
<path d="M13 26C10.4288 26 7.91543 25.2376 5.77759 23.8091C3.63975 22.3806 1.97351 20.3503 0.989572 17.9749C0.0056327 15.5994 -0.251811 12.9856 0.249797 10.4638C0.751405 7.94207 1.98953 5.6257 3.80762 3.80761C5.6257 1.98953 7.94208 0.751402 10.4638 0.249794C12.9856 -0.251814 15.5994 0.00562859 17.9749 0.989569C20.3503 1.97351 22.3807 3.63975 23.8091 5.77759C25.2376 7.91543 26 10.4288 26 13C25.9964 16.4467 24.6256 19.7512 22.1884 22.1884C19.7512 24.6256 16.4467 25.9964 13 26ZM18 9C18 8.73479 17.8946 8.48043 17.7071 8.29289C17.5196 8.10536 17.2652 8 17 8H11C10.7348 8 10.4804 8.10536 10.2929 8.29289C10.1054 8.48043 10 8.73479 10 9C10 9.26522 10.1054 9.51957 10.2929 9.70711C10.4804 9.89465 10.7348 10 11 10H14.5863L8.2925 16.2925C8.10486 16.4801 7.99945 16.7346 7.99945 17C7.99945 17.2654 8.10486 17.5199 8.2925 17.7075C8.48015 17.8951 8.73464 18.0006 9 18.0006C9.26537 18.0006 9.51987 17.8951 9.70751 17.7075L16 11.4138V15C16 15.2652 16.1054 15.5196 16.2929 15.7071C16.4804 15.8946 16.7348 16 17 16C17.2652 16 17.5196 15.8946 17.7071 15.7071C17.8946 15.5196 18 15.2652 18 15V9Z" fill="url(#paint0_linear_867_33341)"/>
<defs>
<linearGradient id="paint0_linear_867_33341" x1="13" y1="26" x2="13" y2="-3.8147e-06" gradientUnits="userSpaceOnUse">
<stop stop-color="#8FDB00"/>
<stop offset="1" stop-color="#06A0CF"/>
</linearGradient>
</defs>
</svg>
