<svg width="16" height="17" viewBox="0 0 16 17" fill="none" xmlns="http://www.w3.org/2000/svg">
<path d="M0.275289 5.56253H3.53411V16.0233H0.275289V5.56253ZM1.89821 0.371094C2.93688 0.371094 3.7808 1.2147 3.7808 2.25299C3.7808 3.29128 2.93688 4.13488 1.89821 4.13488C0.859541 4.13488 0.015625 3.29128 0.015625 2.25299C0.015625 1.2147 0.859541 0.371094 1.89821 0.371094Z" fill="#8FDB00"/>
<path d="M5.57031 5.56035H8.68632V6.988H8.72526C9.1667 6.17035 10.2184 5.30078 11.8023 5.30078C15.1001 5.30078 15.6974 7.4682 15.6974 10.2846V16.0211H12.4515V10.9335C12.4515 9.7135 12.4255 8.15607 10.7637 8.15607C9.10179 8.15607 8.81616 9.47988 8.81616 10.8426V16.0211H5.57031V5.56035Z" fill="#8FDB00"/>
</svg>
