<svg width="18" height="15" viewBox="0 0 18 15" fill="none" xmlns="http://www.w3.org/2000/svg">
<path fill-rule="evenodd" clip-rule="evenodd" d="M5.41073 11.5731C3.56162 11.5119 2.41052 10.1776 2.10438 9.10035C2.6187 9.19828 3.12077 9.17379 3.63509 9.05138C3.64734 9.05138 3.65959 9.05138 3.68408 9.0269C2.67993 8.79431 1.90844 8.2557 1.36963 7.39882C1.0145 6.82348 0.843063 6.19918 0.843063 5.50143C1.34514 5.77074 1.87171 5.91763 2.42276 5.92987C1.66353 5.39126 1.16145 4.68127 0.953275 3.77542C0.745097 2.86957 0.879802 2.01268 1.33289 1.19252C3.25548 3.45715 5.70462 4.70575 8.66809 4.91385C8.6436 4.7792 8.63135 4.64454 8.60686 4.52213C8.50889 3.68973 8.68034 2.90629 9.12118 2.1963C9.68449 1.30269 10.4927 0.751837 11.5336 0.592702C12.7337 0.396842 13.7746 0.739596 14.644 1.58424C14.7052 1.64545 14.7542 1.65769 14.8277 1.64545C15.5624 1.48631 16.2482 1.22924 16.8972 0.849767C16.9095 0.849767 16.934 0.837525 16.9462 0.825284C16.9462 0.825284 16.9462 0.825284 16.9707 0.825284C16.689 1.65769 16.1747 2.29423 15.4522 2.7594C16.138 2.68595 16.7993 2.50233 17.436 2.22078C17.436 2.22078 17.436 2.22078 17.4483 2.23302C17.3136 2.41664 17.1789 2.58802 17.0442 2.77164C16.6646 3.2368 16.236 3.64076 15.7461 3.99576C15.7094 4.02024 15.6849 4.05697 15.6849 4.10593C15.7094 4.6323 15.6849 5.15867 15.6237 5.68505C15.489 6.78676 15.1828 7.8395 14.7052 8.85552C14.2154 9.89602 13.5786 10.8386 12.7827 11.6588C11.4234 13.0543 9.7947 13.9601 7.89661 14.3885C7.24759 14.5354 6.58632 14.6089 5.9128 14.6211C3.85552 14.6823 1.96967 14.1682 0.218532 13.091C0.194041 13.0787 0.16955 13.0665 0.132812 13.042C1.36963 13.1767 2.55747 13.0175 3.69632 12.5524C4.29636 12.3075 4.85967 11.977 5.38623 11.5608L5.41073 11.5731Z" fill="#8FDB00"/>
</svg>
